<svg width="35" height="35" xmlns="http://www.w3.org/2000/svg" fill="none">
 <defs>
  <clipPath id="clip0_4_40">
   <rect id="svg_1" fill="white" height="35" width="35"/>
  </clipPath>
 </defs>
 <g>
  <title>Layer 1</title>
  <g id="svg_2" clip-path="url(#clip0_4_40)">
   <path id="svg_3" fill="#000000" d="m0.05415,26.9849c0.5463,4.561 6.04292,8.0001 12.78575,8.0001c6.062,0 11.2115,-2.7976 12.5244,-6.8035l0.0012,-0.002c0.2054,-0.6184 0.3114,-1.265 0.3143,-1.9165c-0.0031,-0.1963 -0.0168,-0.3921 -0.041,-0.5867l-0.0069,-0.0622l0,-0.0003c-0.2388,-1.7263 -1.094,-3.3077 -2.4083,-4.4524c1.4964,0.6586 3.1088,1.0122 4.7434,1.041c1.3571,0.0254 2.6965,-0.3109 3.8805,-0.9741l0.0006,-0.0008c0.4545,-0.2582 0.8735,-0.5745 1.2459,-0.9413c0.2802,-0.2853 0.5304,-0.5982 0.7475,-0.9339l0.0006,-0.0008c2.4616,-3.7041 0.8865,-9.92916 -3.6642,-14.47966c-4.214,-4.21395 -10.0076,-5.92808 -13.7772,-4.07516c-0.6062,0.29324 -1.1599,0.68422 -1.6389,1.15729c-0.1747,0.17896 -0.3377,0.36875 -0.4885,0.56852l-0.0003,0.00029c-2.8041,3.61093 -1.3077,10.13262 3.4069,14.84722c0.466,0.4646 0.9561,0.9043 1.4679,1.3175c-2.0142,-0.7663 -4.1526,-1.155 -6.3079,-1.1465c-6.02013,0 -11.29903,2.8917 -12.55207,6.8757c-0.18923,0.597 -0.28641,1.2197 -0.28783,1.8463c0.00342,0.2414 0.02137,0.4822 0.05386,0.7216l0.00029,0.0003zm12.78575,6.8328c-5.6773,0 -10.52333,-2.6955 -11.48797,-6.2569c0.02308,0.0023 0.04673,0.0048 0.06925,0.0071c0.2086,0.0237 0.40723,0.0496 0.59275,0.0793c0.02707,0.0042 0.05215,0.0091 0.07894,0.0136c0.17326,0.0288 0.33855,0.0599 0.49785,0.0929c0.0265,0.0054 0.05415,0.0106 0.08065,0.0163c0.17041,0.0365 0.33485,0.0746 0.49643,0.1143c0.03505,0.0085 0.06982,0.0173 0.1043,0.0259c0.1556,0.039 0.30948,0.0784 0.4648,0.1188c1.50467,0.4269 3.06406,0.6295 4.62773,0.601c1.56195,0.0288 3.11967,-0.1744 4.62207,-0.6024c1.406,-0.4038 2.8648,-0.5942 4.3273,-0.5648c1.4631,-0.0294 2.9225,0.161 4.3291,0.5645c0.1462,0.0379 0.2944,0.0761 0.4448,0.114c0.0348,0.0088 0.0696,0.0174 0.1046,0.0262c0.1596,0.0396 0.3235,0.0784 0.4939,0.1157c0.0208,0.0046 0.043,0.0089 0.0641,0.0134c0.1576,0.0336 0.322,0.0658 0.4936,0.0963c0.0305,0.0054 0.0596,0.0111 0.0903,0.0163c0.1861,0.0319 0.3828,0.0607 0.5905,0.0869c0.0185,0.0026 0.0339,0.0057 0.0527,0.008c-1.5084,3.1176 -6.0292,5.3136 -11.1377,5.3136zm16.5127,-28.12029c3.8235,3.82382 5.4242,9.05569 3.8939,12.33549c-0.0157,-0.0182 -0.0316,-0.0365 -0.0468,-0.0547c-0.1547,-0.1821 -0.298,-0.3579 -0.4257,-0.5249c-0.0114,-0.0149 -0.0211,-0.0288 -0.0322,-0.0434c-0.1217,-0.1607 -0.2328,-0.3157 -0.3369,-0.4667c-0.0168,-0.0246 -0.0344,-0.0496 -0.051,-0.0739c-0.106,-0.1564 -0.2051,-0.3094 -0.3006,-0.461c-0.0183,-0.0291 -0.0362,-0.0579 -0.0544,-0.087c-0.0921,-0.1476 -0.1821,-0.2946 -0.2725,-0.4431c-0.7817,-1.3536 -1.7594,-2.5839 -2.901,-3.6511c-1.1006,-1.1077 -2.3599,-2.0459 -3.7361,-2.78338c-1.2898,-0.68879 -2.4687,-1.56681 -3.4978,-2.60526c-1.0695,-0.99685 -1.9837,-2.14844 -2.7121,-3.41601c-0.0741,-0.12226 -0.1496,-0.24594 -0.2266,-0.37047l-0.0589,-0.0949c-0.0827,-0.1328 -0.1679,-0.26731 -0.2591,-0.40552c-0.01,-0.01539 -0.0211,-0.03135 -0.0313,-0.04674c-0.0824,-0.12425 -0.1702,-0.25163 -0.2634,-0.38243c-0.0216,-0.03021 -0.0424,-0.06013 -0.0646,-0.09091c-0.1041,-0.14363 -0.2152,-0.29153 -0.336,-0.44485c-0.008,-0.01054 -0.0146,-0.01995 -0.0228,-0.03021c3.335,-1.12195 8.1258,0.53063 11.7359,4.14099zm-13.7655,-2.91815c0.2804,-0.27786 0.5941,-0.52009 0.9338,-0.72071c0.01,0.01169 0.0183,0.0228 0.028,0.03448c0.1288,0.15674 0.2459,0.30664 0.355,0.45198c0.0177,0.02365 0.0368,0.04816 0.0542,0.07153c0.1091,0.14818 0.2094,0.29153 0.3043,0.43173c0.0189,0.02793 0.0377,0.05557 0.0559,0.08322c0.0926,0.13907 0.1812,0.27614 0.2659,0.41179c0.0154,0.02451 0.0305,0.04901 0.0456,0.07352c0.0849,0.13708 0.1681,0.27329 0.2519,0.41151c0.7803,1.35221 1.7566,2.5816 2.8971,3.64798c1.1005,1.10742 2.3599,2.04556 3.736,2.78341c1.2898,0.6885 2.4688,1.5665 3.4978,2.6052c1.0709,0.998 1.9866,2.1507 2.7167,3.4197c0.0601,0.0986 0.1205,0.1978 0.1818,0.2978c0.0208,0.0337 0.0425,0.0681 0.0636,0.102c0.043,0.0693 0.086,0.1385 0.1305,0.2087c0.0262,0.0413 0.0538,0.0832 0.0806,0.1248c0.0419,0.0652 0.0844,0.1305 0.1288,0.1972c0.0297,0.0444 0.0607,0.09 0.0918,0.1353c0.0442,0.065 0.0898,0.1308 0.1368,0.1975c0.0342,0.0482 0.0695,0.0972 0.1051,0.1465c0.0485,0.0664 0.0984,0.1339 0.1502,0.2023c0.0391,0.0516 0.079,0.1041 0.12,0.1568c0.0539,0.0692 0.1109,0.1402 0.1687,0.2117c0.0442,0.0547 0.0883,0.1094 0.1354,0.1656c0.061,0.0735 0.1265,0.1493 0.1923,0.2254c0.0507,0.0584 0.1,0.1163 0.1533,0.1761c0.0131,0.0148 0.0243,0.0285 0.0377,0.0433c-0.1043,0.1351 -0.2169,0.2639 -0.3372,0.3853c-0.1886,0.187 -0.3938,0.3568 -0.613,0.5076l-0.0202,-0.0223c-0.0373,-0.0424 -0.0707,-0.0826 -0.1063,-0.1239c-0.0675,-0.0784 -0.1348,-0.1562 -0.1969,-0.2314c-0.0385,-0.0468 -0.0744,-0.0918 -0.1111,-0.1374c-0.0539,-0.0672 -0.1072,-0.1339 -0.1573,-0.1989c-0.036,-0.0465 -0.0702,-0.0918 -0.1044,-0.1374c-0.0464,-0.0618 -0.0917,-0.1231 -0.1353,-0.1835c-0.0322,-0.0442 -0.0636,-0.088 -0.0941,-0.1316c-0.0427,-0.0607 -0.0843,-0.1209 -0.1245,-0.1804c-0.0276,-0.0408 -0.0556,-0.0815 -0.0823,-0.122c-0.0408,-0.0618 -0.0807,-0.1231 -0.12,-0.1841c-0.024,-0.037 -0.0482,-0.0744 -0.0716,-0.1114c-0.0421,-0.0664 -0.0832,-0.1325 -0.1239,-0.1984c-0.0194,-0.031 -0.0391,-0.0624 -0.0582,-0.0937c-0.0578,-0.0941 -0.1154,-0.1881 -0.1726,-0.2824c-0.7826,-1.3537 -1.7606,-2.5842 -2.9025,-3.6517c-1.1006,-1.1077 -2.3599,-2.0459 -3.7361,-2.7834c-1.2898,-0.6885 -2.4687,-1.56679 -3.4978,-2.60524c-1.0703,-0.99771 -1.9854,-2.14987 -2.7149,-3.41801c-0.0901,-0.1479 -0.1821,-0.2978 -0.2762,-0.44941c-0.0199,-0.03192 -0.0396,-0.06383 -0.0598,-0.09604c-0.0961,-0.15274 -0.1981,-0.30891 -0.3061,-0.46907c-0.0225,-0.03362 -0.0456,-0.06725 -0.069,-0.10116c-0.1125,-0.16387 -0.2336,-0.33257 -0.3664,-0.5084c-0.0223,-0.02907 -0.0462,-0.05928 -0.0687,-0.08863c-0.1439,-0.18723 -0.2981,-0.37987 -0.4731,-0.58449l-0.0045,-0.0057c0.0282,-0.03077 0.0564,-0.06041 0.0852,-0.08919zm2.9181,13.76554c-4.0449,-4.0453 -5.573,-9.44787 -3.7126,-12.70372c0.0139,0.0171 0.0287,0.03448 0.0424,0.05129c0.1254,0.15446 0.2425,0.30379 0.3494,0.4477c0.0202,0.02708 0.0385,0.05329 0.0581,0.08008c0.0964,0.13194 0.187,0.26075 0.2719,0.38643c0.0151,0.0228 0.0313,0.04559 0.0462,0.06811c0.0937,0.14049 0.1821,0.27842 0.2678,0.41549c0.0189,0.02993 0.0371,0.05956 0.0556,0.0892c0.0821,0.13252 0.163,0.26474 0.2442,0.3984c0.7814,1.3525 1.7586,2.58245 2.8997,3.64941c1.1006,1.10741 2.3599,2.04551 3.736,2.78311c1.2898,0.6888 2.4688,1.5668 3.4978,2.6052c1.0712,0.9986 1.9874,2.1516 2.7181,3.4206c0.0898,0.1476 0.1815,0.2967 0.2753,0.4477c0.0219,0.0353 0.0436,0.0704 0.0661,0.1057c0.0978,0.155 0.2006,0.3135 0.3109,0.4762c0.0223,0.0328 0.0459,0.0664 0.0687,0.0998c0.1143,0.1655 0.2354,0.3354 0.3708,0.5135l0.0173,0.0239c0.1374,0.1798 0.293,0.3702 0.4589,0.5666c0.0213,0.025 0.037,0.0473 0.0589,0.0729c-3.3128,1.371 -8.3563,-0.2533 -12.1015,-3.9976zm-5.6653,2.1635c5.7277,0 10.5834,2.7249 11.5034,6.3233c-0.0228,-0.0025 -0.0462,-0.0048 -0.0684,-0.0071c-0.2121,-0.0236 -0.4138,-0.0499 -0.6019,-0.0798c-0.0251,-0.004 -0.0485,-0.0085 -0.0733,-0.0125c-0.1729,-0.0285 -0.3379,-0.0596 -0.4967,-0.0924c-0.0316,-0.0065 -0.0644,-0.0125 -0.0954,-0.0193c-0.1673,-0.0357 -0.3289,-0.0733 -0.4876,-0.112c-0.0416,-0.0103 -0.0835,-0.0205 -0.1248,-0.0311c-0.1514,-0.0379 -0.3016,-0.0761 -0.4529,-0.1154c-1.5046,-0.4269 -3.0643,-0.6295 -4.6283,-0.601c-1.5619,-0.0288 -3.1196,0.1741 -4.622,0.6024c-1.4061,0.4035 -2.86487,0.5939 -4.32737,0.5648c-1.46336,0.0291 -2.92272,-0.1613 -4.32965,-0.5645c-0.14448,-0.0376 -0.29068,-0.0752 -0.43886,-0.1126c-0.04047,-0.0102 -0.08094,-0.0202 -0.12197,-0.0305c-0.15788,-0.039 -0.31975,-0.0772 -0.48845,-0.1139c-0.02651,-0.006 -0.05443,-0.0114 -0.08151,-0.0171c-0.15588,-0.0331 -0.3186,-0.0647 -0.48816,-0.0947c-0.03135,-0.0054 -0.06127,-0.0114 -0.09319,-0.0168c-0.18723,-0.0316 -0.38586,-0.0601 -0.59446,-0.0863c-0.02109,-0.0026 -0.03876,-0.006 -0.06013,-0.0086c1.47675,-3.1529 6.01329,-5.3749 11.17165,-5.3749zm-11.55779,6.5066l0.02194,0.0025c0.2257,0.0231 0.43402,0.0511 0.63265,0.0813c0.02821,0.0045 0.05813,0.0082 0.08606,0.0128c0.19151,0.0308 0.37161,0.0644 0.54573,0.1003c0.03505,0.0071 0.07039,0.0142 0.10487,0.0219c0.16814,0.0359 0.33086,0.0733 0.49016,0.1123c0.03676,0.0091 0.07296,0.0183 0.10943,0.0274c0.15646,0.0393 0.31177,0.0792 0.46794,0.12c1.50296,0.4277 3.06121,0.6306 4.62374,0.6021c1.56195,0.0288 3.11967,-0.1744 4.62207,-0.6024c1.406,-0.4038 2.8648,-0.5942 4.3273,-0.5649c1.4651,-0.029 2.9262,0.1611 4.3351,0.5637c0.1034,0.0268 0.2074,0.0536 0.3123,0.0804c0.0399,0.0103 0.0807,0.0202 0.1209,0.0302c0.0718,0.0182 0.1439,0.0362 0.2174,0.0539c0.0427,0.0102 0.0869,0.0205 0.1305,0.0307c0.0727,0.0171 0.1462,0.0339 0.2211,0.0505c0.0465,0.0102 0.0938,0.0202 0.1414,0.0302c0.0747,0.0159 0.151,0.0313 0.2288,0.0464c0.0502,0.0097 0.1009,0.0194 0.1522,0.0288c0.0804,0.0146 0.1633,0.0288 0.2471,0.0425c0.0524,0.0085 0.1046,0.0171 0.1584,0.0253c0.0907,0.014 0.1853,0.0265 0.281,0.0394c0.0516,0.0068 0.102,0.0139 0.1556,0.0202c0.1117,0.0134 0.2288,0.0254 0.348,0.0371c0.043,0.0039 0.0832,0.0088 0.1274,0.0128l0.021,0.0023c0.0003,0.0133 0.0003,0.027 0.0003,0.0404c-0.0011,0.3745 -0.0456,0.7475 -0.1325,1.1117l-0.0236,-0.0028c-0.2218,-0.0231 -0.4264,-0.0508 -0.6219,-0.0807c-0.0302,-0.0048 -0.0618,-0.0088 -0.0914,-0.0137c-0.1884,-0.0305 -0.3659,-0.0638 -0.5372,-0.0991c-0.0371,-0.0074 -0.0738,-0.0151 -0.1103,-0.0228c-0.1653,-0.0357 -0.326,-0.0727 -0.483,-0.1112c-0.0379,-0.0094 -0.0756,-0.0191 -0.1132,-0.0285c-0.1544,-0.0387 -0.3075,-0.0781 -0.4619,-0.1182c-1.503,-0.4281 -3.0609,-0.631 -4.6235,-0.6022c-1.5619,-0.0288 -3.1196,0.1741 -4.622,0.6024c-1.4061,0.4036 -2.86487,0.5939 -4.32737,0.5649c-1.46478,0.0288 -2.92586,-0.1613 -4.33449,-0.5637c-0.10573,-0.0274 -0.21203,-0.055 -0.31918,-0.0824c-0.03163,-0.0079 -0.0644,-0.0159 -0.0966,-0.0242c-0.07723,-0.0194 -0.15503,-0.0388 -0.23454,-0.0581c-0.04389,-0.0106 -0.0892,-0.0208 -0.13394,-0.0314c-0.0701,-0.0165 -0.14078,-0.0327 -0.21288,-0.0487c-0.04958,-0.0111 -0.10059,-0.0217 -0.1516,-0.0325c-0.07039,-0.0148 -0.14221,-0.0293 -0.21516,-0.0436c-0.05472,-0.0108 -0.11,-0.0211 -0.16643,-0.0313c-0.07352,-0.0134 -0.14932,-0.0263 -0.22598,-0.0391c-0.05928,-0.0097 -0.11855,-0.0196 -0.18011,-0.0288c-0.07894,-0.0122 -0.16158,-0.0233 -0.24451,-0.0342c-0.06383,-0.0085 -0.12681,-0.0173 -0.19293,-0.0253c-0.09147,-0.0109 -0.1878,-0.0205 -0.28412,-0.0302c-0.06269,-0.0063 -0.12282,-0.0134 -0.18808,-0.0191l-0.01482,-0.0015c-0.00114,-0.0353 -0.002,-0.0706 -0.002,-0.1057c0.00057,-0.3525 0.03905,-0.7039 0.11485,-1.0481z"/>
   <path id="svg_4" fill="#000000" d="m6.6884,30.1179c-0.23995,-0.124 -0.46793,-0.2542 -0.68395,-0.3907c-0.27272,-0.1707 -0.63207,-0.0883 -0.80335,0.1838c-0.17127,0.2722 -0.09005,0.6318 0.18153,0.8039c0.2428,0.1531 0.499,0.2995 0.76887,0.4397c0.2864,0.1482 0.63863,0.0362 0.78682,-0.2499c0.14819,-0.2864 0.03648,-0.6386 -0.24992,-0.7868z"/>
   <path id="svg_5" fill="#000000" d="m20.4496,29.1678c-1.8241,1.4716 -4.5978,2.3154 -7.6097,2.3154c-1.5223,0.0123 -3.037,-0.2154 -4.48838,-0.6748c-0.30607,-0.0992 -0.63464,0.0684 -0.73438,0.3744c-0.09975,0.3061 0.06725,0.635 0.37303,0.7353c1.56794,0.4976 3.20453,0.7446 4.84973,0.7324c3.2738,0 6.3145,-0.9382 8.3427,-2.5742c0.2508,-0.2026 0.2901,-0.57 0.0878,-0.8207c-0.2024,-0.2511 -0.57,-0.2904 -0.8208,-0.0878z"/>
   <path id="svg_6" fill="#000000" d="m16.6894,9.21288c-0.0644,-0.22997 -0.1192,-0.4571 -0.1639,-0.68109c-0.0633,-0.31604 -0.3708,-0.52094 -0.6868,-0.45767c-0.316,0.06326 -0.5209,0.37075 -0.4577,0.68679c0.0505,0.25164 0.112,0.50697 0.1844,0.76659c0.0869,0.31034 0.409,0.4913 0.7193,0.40467c0.3103,-0.08692 0.4916,-0.40895 0.4047,-0.71929z"/>
   <path id="svg_7" fill="#000000" d="m28.1331,19.2919c0.02,-0.3217 -0.2248,-0.5987 -0.5465,-0.6184c-2.4001,-0.1479 -5.2473,-1.5961 -7.4305,-3.7796c-1.0992,-1.0858 -2.0139,-2.3436 -2.7079,-3.7241c-0.1436,-0.2881 -0.493,-0.4055 -0.7814,-0.2627c-0.2884,0.1428 -0.4066,0.4921 -0.2644,0.7808c0.7503,1.4941 1.7395,2.8558 2.9284,4.0313c2.412,2.4123 5.4715,3.9523 8.1839,4.1193c0.0123,0.0009 0.0246,0.0012 0.0365,0.0012c0.3081,-0.0006 0.5629,-0.2403 0.5819,-0.5478z"/>
  </g>
 </g>
</svg>